<svg width="141" height="39" viewBox="0 0 141 39" fill="none" xmlns="http://www.w3.org/2000/svg">
    <path d="M9.696 3.6h3.136c4.384 0 7.872 3.552 7.872 7.936v11.392c0 1.28-.32 2.496-.832 3.552l3.456 4.352h-4.672l-1.216-1.504a7.857 7.857 0 0 1-4.608 1.504H9.696c-4.352 0-7.904-3.552-7.904-7.904V11.536c0-4.384 3.552-7.936 7.904-7.936zm4.128 15.232 1.984 2.528v-9.568c0-1.888-1.184-3.456-3.008-3.456H9.728c-1.856 0-3.04 1.568-3.04 3.456V22.64c0 1.888 1.184 3.456 3.04 3.456H12.8c.64 0 1.184-.192 1.632-.512l-5.408-6.752h4.8zM44.554 3.6v19.328c0 4.352-3.488 7.904-7.872 7.904h-3.104c-4.352 0-7.936-3.552-7.936-7.904V3.6h4.928v19.04c0 1.888 1.504 3.456 3.36 3.456h2.368c1.856 0 3.36-1.568 3.36-3.456V3.6h4.896zm14.721 0a7.375 7.375 0 0 1 7.393 7.392v1.184a7.375 7.375 0 0 1-7.393 7.392h-6.88v11.264h-4.8V3.6h11.68zm-.8 4.768h-6.08V14.8h6.08c2.273 0 3.297-1.216 3.297-3.2 0-1.92-1.056-3.232-3.297-3.232zm11.417 22.464V3.6h5.056v27.232h-5.056zm9.156 0V3.6h12.416c3.584 0 6.464 3.232 6.464 7.2v12.832c0 3.968-2.88 7.2-6.464 7.2H79.048zm4.992-5.024h6.208c1.504 0 2.72-1.344 2.72-3.008V11.6c0-1.632-1.216-3.008-2.72-3.008H84.04v17.216z" fill="#fff"/>
    <path fill-rule="evenodd" clip-rule="evenodd" d="m107.422 26.344 2.297 2.297a3 3 0 0 0 4.242 0l8.76-8.76a3.001 3.001 0 0 0 0-4.243l-8.76-8.76a3 3 0 0 0-4.242 0l-2.297 2.297 7.17 7.17a2 2 0 0 1 0 2.829l-7.17 7.17zM124 26.344l2.297 2.297a3 3 0 0 0 4.242 0l8.76-8.76a3.001 3.001 0 0 0 0-4.243l-8.76-8.76a3 3 0 0 0-4.242 0L124 9.176l7.17 7.17a2 2 0 0 1 0 2.829l-7.17 7.17z" fill="#FF0A0A"/>
</svg>
